<?xml version="1.0" standalone="no"?>
<!DOCTYPE svg PUBLIC "-//W3C//DTD SVG 20010904//EN"
 "http://www.w3.org/TR/2001/REC-SVG-20010904/DTD/svg10.dtd">
<svg version="1.0" xmlns="http://www.w3.org/2000/svg"
 width="432.000000pt" height="432.000000pt" viewBox="0 0 432.000000 432.000000"
 preserveAspectRatio="xMidYMid meet">
<metadata>
Created by potrace 1.14, written by Peter Selinger 2001-2017
</metadata>
<g transform="translate(0.000000,432.000000) scale(0.100000,-0.100000)"
fill="#000000" stroke="none">
<path d="M2100 4163 c-8 -3 -226 -93 -485 -200 -259 -107 -544 -226 -635 -263
-672 -276 -807 -334 -824 -350 -18 -18 -19 -53 -19 -1205 0 -1155 0 -1187 19
-1205 17 -16 1902 -802 1959 -816 19 -5 158 44 270 96 20 9 124 52 665 275
157 64 299 123 315 130 17 8 185 77 375 155 190 78 354 150 364 160 19 18 19
51 19 1205 0 1151 -1 1187 -19 1204 -10 10 -71 40 -134 66 -63 26 -128 53
-145 60 -16 7 -158 66 -315 130 -157 64 -298 123 -315 130 -16 8 -82 35 -145
60 -63 26 -128 53 -145 60 -126 57 -745 308 -765 311 -14 2 -32 0 -40 -3z m76
-149 c22 -9 53 -22 69 -29 17 -8 134 -56 260 -108 127 -52 439 -182 695 -287
440 -182 603 -249 660 -272 28 -11 57 2 -455 -208 -137 -56 -279 -115 -315
-130 -36 -16 -193 -81 -350 -145 -157 -64 -298 -123 -315 -131 -16 -7 -90 -37
-163 -67 l-134 -54 -131 55 c-168 69 -666 275 -1199 495 -368 152 -414 173
-395 183 12 7 202 86 422 177 220 91 600 249 845 350 245 102 450 186 456 186
6 1 29 -6 50 -15z m1814 -1897 l0 -1093 -37 -13 c-21 -8 -56 -22 -78 -32 -22
-10 -195 -81 -385 -159 -190 -78 -358 -147 -375 -155 -16 -7 -82 -34 -145 -59
-63 -26 -124 -51 -135 -56 -104 -47 -628 -260 -633 -256 -5 3 -8 2076 -3 2157
1 9 24 25 59 39 31 12 75 31 97 40 22 10 103 44 180 75 216 88 788 325 810
335 11 5 126 53 255 106 129 53 269 111 310 129 41 18 76 34 78 34 1 1 2 -491
2 -1092z m-3075 823 c336 -139 729 -302 875 -362 146 -60 267 -111 269 -114 7
-7 6 -2166 -1 -2170 -5 -3 -1349 547 -1503 615 -22 10 -95 40 -162 67 l-123
49 0 1089 c0 1032 1 1088 18 1083 9 -2 292 -118 627 -257z"/>
</g>
</svg>
